<svg class="icon" style="width: 1em;height: 1em;vertical-align: middle;fill: currentColor;overflow: hidden;" viewBox="0 0 1024 1024" version="1.1" xmlns="http://www.w3.org/2000/svg"><path d="M894.464 966.144H119.296c-22.528 0-40.96-18.432-40.96-40.96V365.056c0-22.528 18.432-40.96 40.96-40.96h206.848v61.44H139.776v518.656h734.208V385.536h-199.68v-61.44h220.16c22.528 0 40.96 18.432 40.96 40.96v559.616c0 23.04-18.432 41.472-40.96 41.472z" fill="" /><path d="M326.144 354.816m-30.72 0a30.72 30.72 0 1 0 61.44 0 30.72 30.72 0 1 0-61.44 0Z" fill="" /><path d="M328.704 250.88m-30.72 0a30.72 30.72 0 1 0 61.44 0 30.72 30.72 0 1 0-61.44 0Z" fill="" /><path d="M687.616 252.416m-30.72 0a30.72 30.72 0 1 0 61.44 0 30.72 30.72 0 1 0-61.44 0Z" fill="" /><path d="M507.392 81.92m-30.72 0a30.72 30.72 0 1 0 61.44 0 30.72 30.72 0 1 0-61.44 0Z" fill="" /><path d="M674.304 354.816m-30.72 0a30.72 30.72 0 1 0 61.44 0 30.72 30.72 0 1 0-61.44 0Z" fill="" /><path d="M510.464 710.144h-5.12c-15.36 0-28.16-12.8-28.16-28.16V145.92c0-15.36 12.8-28.16 28.16-28.16h5.12c15.36 0 28.16 12.8 28.16 28.16v536.064c0 15.36-12.8 28.16-28.16 28.16z" fill="" /><path d="M309.28896 227.31264l177.4336-167.8336 42.21952 44.63616-177.42848 167.8336z" fill="" /><path d="M486.13376 104.22272l42.21952-44.63616 177.42848 167.8336-42.21952 44.63104z" fill="" /></svg>