<?xml version="1.0" encoding="utf-8"?>
<!-- Generator: Adobe Illustrator 26.1.0, SVG Export Plug-In . SVG Version: 6.00 Build 0)  -->
<svg version="1.1" id="图层_1" xmlns="http://www.w3.org/2000/svg" xmlns:xlink="http://www.w3.org/1999/xlink" x="0px" y="0px"
	 viewBox="0 0 1024 1024" style="enable-background:new 0 0 1024 1024;" xml:space="preserve">
<path d="M894.5,966.1H119.3c-22.5,0-41-18.4-41-41V365.1c0-22.5,18.4-41,41-41h206.8v61.4H139.8v518.7H874V385.5H674.3v-61.4h220.2
	c22.5,0,41,18.4,41,41v559.6C935.4,947.7,917,966.1,894.5,966.1z"/>
<path d="M295.4,354.8c0,17,13.8,30.7,30.7,30.7s30.7-13.8,30.7-30.7l0,0c0-17-13.8-30.7-30.7-30.7S295.4,337.8,295.4,354.8z"/>
<path d="M718.3,510.5c0-17-13.8-30.7-30.7-30.7s-30.7,13.8-30.7,30.7l0,0c0,17,13.8,30.7,30.7,30.7S718.3,527.4,718.3,510.5z"/>
<path d="M359.4,508.9c0-17-13.8-30.7-30.7-30.7c-17,0-30.7,13.8-30.7,30.7c0,17,13.8,30.7,30.7,30.7
	C345.7,539.6,359.4,525.9,359.4,508.9z"/>
<path d="M539.6,679.4c0-17-13.8-30.7-30.7-30.7c-17,0-30.7,13.8-30.7,30.7s13.8,30.7,30.7,30.7C525.9,710.1,539.6,696.4,539.6,679.4
	z"/>
<path d="M643.6,354.8c0,17,13.8,30.7,30.7,30.7c17,0,30.7-13.8,30.7-30.7l0,0c0-17-13.8-30.7-30.7-30.7
	C657.3,324.1,643.6,337.8,643.6,354.8z"/>
<path d="M505.9,51.2h5.1c15.4,0,28.2,12.8,28.2,28.2l0,536.1c0,15.4-12.8,28.2-28.2,28.2h-5.1c-15.4,0-28.2-12.8-28.2-28.2V79.4
	C477.7,64,490.5,51.2,505.9,51.2L505.9,51.2z"/>
<path d="M707,534L529.6,701.9l-42.2-44.6l177.4-167.8L707,534z"/>
<path d="M530.2,657.1L488,701.8L310.5,533.9l42.2-44.6L530.2,657.1z"/>
</svg>
