<?xml version="1.0" standalone="no"?><!DOCTYPE svg PUBLIC "-//W3C//DTD SVG 1.1//EN" "http://www.w3.org/Graphics/SVG/1.1/DTD/svg11.dtd"><svg t="1651498718685" class="icon" viewBox="0 0 1024 1024" version="1.1" xmlns="http://www.w3.org/2000/svg" p-id="9075" xmlns:xlink="http://www.w3.org/1999/xlink" width="200" height="200"><defs><style type="text/css">@font-face { font-family: feedback-iconfont; src: url("//at.alicdn.com/t/font_1031158_u69w8yhxdu.woff2?t=1630033759944") format("woff2"), url("//at.alicdn.com/t/font_1031158_u69w8yhxdu.woff?t=1630033759944") format("woff"), url("//at.alicdn.com/t/font_1031158_u69w8yhxdu.ttf?t=1630033759944") format("truetype"); }
</style></defs><path d="M605.91 896.85a30 30 0 0 1-25.5-14.21l-167.12-270a30 30 0 0 1 4-36.7l406.2-417.86a30 30 0 0 1 49.85 30.76L634.26 876.7a30 30 0 0 1-25 20 30.41 30.41 0 0 1-3.35 0.15zM476.63 601l121.64 196.49 174-500.64z m-49.48 14.33a29.89 29.89 0 0 1-15.68-4.43L142.1 445.64a30 30 0 0 1 5.59-53.82l683.84-244.4A30 30 0 0 1 862.71 197L448.25 606.67a30 30 0 0 1-21.1 8.66z m-200.3-188.09l196 120.22 301.49-298z" p-id="9076"></path></svg>