<?xml version="1.0" encoding="utf-8"?>
<!-- Generator: Adobe Illustrator 26.1.0, SVG Export Plug-In . SVG Version: 6.00 Build 0)  -->
<svg version="1.1" id="图层_1" xmlns="http://www.w3.org/2000/svg" xmlns:xlink="http://www.w3.org/1999/xlink" x="0px" y="0px"
	 viewBox="0 0 1024 1024" style="enable-background:new 0 0 1024 1024;" xml:space="preserve">
<style type="text/css">
	.st0{fill:#202020;}
</style>
<path class="st0" d="M307.2,512H102.4V102.4H512v204.8h102.4V0H0v614.4h307.2V512z"/>
<path class="st0" d="M409.6,409.6V1024H1024V409.6H409.6z M921.6,921.6H512V512h409.6V921.6z M868.1,256h-48.9l51.2,51.2l51.2,51.2
	l51.2-51.2L1024,256h-52.3c-12.9-131.2-123-231.3-254.9-231.5h-51.2v102.4h51.2C792.1,127,856.1,181.7,868.1,256z M155.9,768h48.9
	L153,716.2l-44.4-44.4l-6.3-6.3l-6.3,6.3l-44.4,44.4L0,768h52.3c12.9,131.2,123,231.3,254.9,231.5h51.2V897.1h-51.2
	C231.9,897,167.9,842.3,155.9,768z"/>
</svg>
